# xmcd
#
# Track frame offsets: 
#        150
#        23225
#        47112
#        83922
#        102480
#        146617
#        169525
#        191992
#        210047
#        232407
#        252022
#
# Disc length: 3715 seconds
#
# Revision: 2
# Processed by: cddbd v1.5.2PL0 Copyright (c) Steve Scherf et al.
# Submitted via: ExactAudioCopy v0.99pb1
#
DISCID=950e810b
DTITLE=Rick Derringer - Back To The Blues
DYEAR=1993
DGENRE=Hard-Blues
TTITLE0=Trouble In Paradise
TTITLE1=Blue Suede Blues
TTITLE2=Blues All Night Long
TTITLE3=Meantown Blues
TTITLE4=Sorry For Your Heartache
TTITLE5=Sink Or Swim
TTITLE6=Diamond
TTITLE7=Crybaby
TTITLE8=Unsolved Mystery
TTITLE9=Blue Velvet
TTITLE10=Time To Go
EXTD=
EXTT0=
EXTT1=
EXTT2=
EXTT3=
EXTT4=
EXTT5=
EXTT6=
EXTT7=
EXTT8=
EXTT9=
EXTT10=
PLAYORDER=
